<svg width="513" height="212" viewBox="0 0 513 212" fill="none" xmlns="http://www.w3.org/2000/svg">
<path d="M46.4204 167.987V130.438C42.6455 127.342 37.9379 125.451 32.9575 125.451C22.1784 125.451 15.8517 133.666 15.8517 149.147C15.8517 163.949 21.7736 172.156 32.6847 172.156C37.5332 172.156 42.5136 170.546 46.4204 167.987ZM66.3509 177.679L52.2104 185.349L47.6259 175.392C42.9183 181.18 35.9141 185.349 26.8948 185.349C9.65697 185.349 0.637695 171.083 0.637695 149.006C0.637695 125.056 11.276 112.126 28.2411 112.126C36.1869 112.126 42.3816 115.09 46.4204 120.614V85.3436H60.9569V166.914L66.3509 177.679ZM91.6576 140.263H125.993C125.324 129.761 120.343 124.783 111.051 124.783C100.95 124.783 93.9455 130.57 91.6576 140.263ZM138.514 150.352H90.8481C91.7984 162.604 101.354 170.81 116.436 170.81C124.109 170.81 132.46 169.2 138.109 166.236L133.534 181.18C128.826 183.731 120.88 185.349 111.72 185.349C90.0474 185.349 75.7661 170.678 75.7661 148.337C75.7661 125.856 89.3698 112.135 111.051 112.135C128.958 112.135 140.265 122.364 140.265 138.917C140.265 142.682 139.596 147.124 138.514 150.352ZM173.931 183.599L146.46 113.885H162.483L180.39 162.604L182.414 168.664H182.95L184.965 162.604L202.749 113.885H218.5L191.16 183.599H173.931ZM266.165 114.017H297.667L295.652 125.187H264.141L253.098 187.909C250.001 205.403 238.289 212 221.861 212C214.32 212 210.818 210.926 207.052 210.117L206.779 198.806C210.554 199.483 214.997 199.888 221.192 199.888C231.021 199.888 237.48 195.983 238.967 187.777L250.001 125.187H228.056L230.079 114.017H252.025L253.098 107.552C256.196 90.19 267.776 83.6021 284.072 83.6021C291.745 83.6021 295.652 84.6752 299.013 85.4844L299.286 97.0593C295.52 96.1182 291.076 95.7136 284.881 95.7136C275.185 95.7136 268.726 99.61 267.239 107.825L266.165 114.017ZM315.846 140.263H350.181C349.512 129.761 344.523 124.783 335.24 124.783C325.138 124.783 318.134 130.57 315.846 140.263ZM362.702 150.352H315.037C315.978 162.604 325.543 170.81 340.625 170.81C348.298 170.81 356.649 169.2 362.298 166.236L357.722 181.18C353.014 183.731 345.069 185.349 335.909 185.349C314.227 185.349 299.955 170.678 299.955 148.337C299.955 125.856 313.558 112.135 335.24 112.135C353.146 112.135 364.453 122.364 364.453 138.917C364.453 142.682 363.785 147.124 362.702 150.352ZM378.321 179.43L377.38 163.818C383.574 168.119 394.881 171.892 406.734 171.892C415.753 171.892 422.221 169.06 422.221 162.736C422.221 149.551 378.858 161.795 378.858 134.88C378.858 122.355 388.291 111.73 410.773 111.73C424.509 111.73 435.006 115.09 435.006 123.437C435.006 125.997 433.933 128.152 432.859 130.166C426.929 127.342 417.636 125.319 409.831 125.319C399.061 125.319 393.403 129.357 393.403 133.798C393.403 145.505 437.294 135.285 437.294 161.531C437.294 176.193 424.377 185.349 405.115 185.349C392.057 185.349 382.228 181.18 378.321 179.43ZM512.299 168.796L509.334 182.385C505.832 183.871 498.828 185.349 492.369 185.349C474.999 185.349 467.599 176.334 467.599 163.545V126.129H447.8V113.885H467.599V94.7725H482.135V113.885H510.275V126.129H482.135V159.103C482.135 168.119 486.852 172.156 495.061 172.156C499.778 172.156 508.392 171.083 512.299 168.796ZM97.2012 30.2395C95.107 29.0521 93.3735 27.3194 92.1856 25.226C90.9625 23.0975 90.3465 20.7491 90.3465 18.172C90.3465 15.5949 90.9625 13.2465 92.1856 11.118C93.3735 9.02462 95.107 7.2919 97.2012 6.1045C99.313 4.89071 101.698 4.25743 104.135 4.27503C106.018 4.26623 107.892 4.61805 109.643 5.3217C111.368 6.00775 112.785 6.98406 113.902 8.25061L111.641 10.5199C110.779 9.45561 109.652 8.63762 108.394 8.12748C107.039 7.56456 105.596 7.27431 104.135 7.2831C102.305 7.2831 100.51 7.74927 98.9171 8.64641C97.2892 9.54356 95.9429 10.8629 95.0102 12.4637C94.0334 14.1172 93.5407 16.0171 93.5407 18.172C93.5407 20.3269 94.0334 22.2267 95.0102 23.8715C95.9429 25.4723 97.2892 26.7916 98.9171 27.6976C100.51 28.5947 102.305 29.0609 104.135 29.0521C105.913 29.0521 107.408 28.7794 108.614 28.2165C109.784 27.68 110.849 26.9324 111.746 26.0088C112.424 25.27 112.952 24.4168 113.313 23.4845C113.717 22.4466 113.955 21.356 114.017 20.2477H104.205V17.3188H116.991C117.114 17.9609 117.176 18.603 117.176 19.2538C117.184 20.8722 116.92 22.4818 116.401 24.021C115.891 25.5515 115.037 26.9412 113.911 28.0934C111.412 30.7408 108.148 32.069 104.135 32.069C101.706 32.0866 99.313 31.4533 97.2012 30.2395ZM132.117 28.3484C133.102 27.7679 133.903 26.9236 134.44 25.9209C135.021 24.8654 135.311 23.6428 135.311 22.2619C135.311 20.8722 135.021 19.6496 134.44 18.5942C133.903 17.5915 133.102 16.7471 132.117 16.1666C131.175 15.6037 130.093 15.3046 128.993 15.3134C127.911 15.3134 126.846 15.6037 125.913 16.1666C124.937 16.7471 124.127 17.5915 123.59 18.5942C123.001 19.6496 122.71 20.8722 122.71 22.2531C122.71 23.6428 123.001 24.8566 123.581 25.9121C124.118 26.9236 124.928 27.7679 125.913 28.3484C126.837 28.9114 127.911 29.2104 128.993 29.2016C130.093 29.2104 131.175 28.9114 132.117 28.3484ZM124.127 30.7848C122.702 29.9404 121.531 28.7179 120.766 27.249C119.956 25.7538 119.551 24.0914 119.551 22.2531C119.551 20.4237 119.956 18.7613 120.766 17.2661C121.531 15.7972 122.702 14.5746 124.127 13.7302C125.561 12.8771 127.189 12.4461 128.993 12.4461C130.806 12.4461 132.434 12.8771 133.885 13.7302C135.311 14.5746 136.49 15.7884 137.264 17.2573C138.065 18.7613 138.47 20.4237 138.47 22.2531C138.47 24.0914 138.065 25.7538 137.264 27.249C136.49 28.7179 135.311 29.9404 133.885 30.7848C132.434 31.638 130.806 32.0602 128.993 32.0602C127.189 32.0602 125.561 31.638 124.127 30.7848ZM153.182 28.3484C154.168 27.7679 154.969 26.9236 155.505 25.9209C156.086 24.8654 156.376 23.6428 156.376 22.2619C156.376 20.8722 156.086 19.6584 155.505 18.603C154.969 17.5915 154.168 16.7559 153.182 16.1666C152.241 15.6037 151.167 15.3134 150.067 15.3134C148.976 15.3134 147.912 15.6037 146.979 16.1666C146.002 16.7559 145.193 17.5915 144.656 18.603C144.075 19.6497 143.785 20.8722 143.785 22.2619C143.785 23.6428 144.075 24.8654 144.656 25.9209C145.193 26.9236 146.002 27.7679 146.979 28.3484C147.912 28.9114 148.976 29.2104 150.067 29.2016C151.167 29.2104 152.241 28.9114 153.182 28.3484ZM145.193 30.7848C143.767 29.9404 142.606 28.7179 141.831 27.249C141.031 25.7538 140.626 24.0914 140.626 22.2531C140.626 20.4237 141.031 18.7613 141.831 17.2661C142.606 15.7972 143.767 14.5746 145.193 13.7302C146.636 12.8771 148.255 12.4461 150.059 12.4461C151.871 12.4461 153.499 12.8771 154.951 13.7302C156.385 14.5658 157.556 15.7884 158.33 17.2573C159.139 18.7613 159.535 20.4237 159.535 22.2531C159.535 24.0914 159.139 25.7538 158.33 27.249C157.556 28.7179 156.385 29.9404 154.951 30.776C153.499 31.638 151.871 32.0602 150.059 32.0602C148.255 32.0602 146.636 31.638 145.193 30.7848ZM173.922 28.366C174.864 27.7767 175.629 26.9412 176.131 25.9561C176.694 24.9094 176.967 23.678 176.967 22.2531C176.967 20.837 176.694 19.5969 176.131 18.5414C175.577 17.4859 174.837 16.6768 173.922 16.1314C173.016 15.5861 171.969 15.3046 170.913 15.3134C169.848 15.3046 168.81 15.5949 167.904 16.149C166.962 16.7383 166.197 17.5739 165.686 18.559C165.132 19.6057 164.85 20.837 164.85 22.2531C164.85 23.678 165.132 24.9094 165.686 25.9561C166.197 26.9412 166.962 27.7767 167.904 28.366C169.751 29.4831 172.066 29.4831 173.922 28.366ZM165.378 38.4897C163.961 37.4255 163.011 36.1853 162.51 34.778L165.449 33.5466C165.809 34.6197 166.504 35.552 167.437 36.2029C168.396 36.8889 169.523 37.2232 170.843 37.2232C172.796 37.2232 174.301 36.6602 175.357 35.5256C176.412 34.391 176.94 32.799 176.932 30.7584V28.797H176.782C176.184 29.7293 175.33 30.5122 174.213 31.1366C173.104 31.7611 171.837 32.069 170.429 32.069C168.88 32.069 167.376 31.638 166.073 30.8024C164.718 29.9316 163.618 28.7267 162.879 27.293C162.087 25.7977 161.691 24.1266 161.691 22.2619C161.691 20.3973 162.087 18.7173 162.879 17.2309C163.618 15.7972 164.718 14.5922 166.073 13.7214C167.376 12.8859 168.88 12.4461 170.429 12.4549C171.837 12.4549 173.104 12.7627 174.213 13.3784C175.33 14.0029 176.184 14.7857 176.782 15.7268H176.932V13.0442H179.95V30.7232C179.95 32.755 179.554 34.4789 178.762 35.8862C178.023 37.2407 176.888 38.3402 175.506 39.0438C174.133 39.7299 172.576 40.0817 170.843 40.0817C168.608 40.0817 166.786 39.554 165.378 38.4897ZM183.733 4.87312H186.892V31.4621H183.733V4.87312ZM204.359 20.2126C204.297 19.4386 204.077 18.6821 203.726 17.9873C203.347 17.2397 202.749 16.6064 201.922 16.0875C201.095 15.5685 200.03 15.3134 198.745 15.3134C197.416 15.2871 196.132 15.7708 195.137 16.6504C194.117 17.5387 193.483 18.7261 193.21 20.2126H204.359ZM194.266 30.8024C192.876 29.958 191.732 28.753 190.984 27.3106C190.192 25.8241 189.796 24.1354 189.796 22.2531C189.779 20.5468 190.157 18.8668 190.905 17.3276C191.618 15.8764 192.718 14.6362 194.09 13.7654C195.463 12.8859 197.038 12.4461 198.824 12.4461C200.611 12.4461 202.177 12.8507 203.523 13.6511C204.869 14.4603 205.952 15.6389 206.629 17.055C207.342 18.515 207.703 20.2038 207.703 22.1036C207.712 22.3587 207.694 22.605 207.632 22.8512H192.982C193.034 24.2321 193.369 25.4107 193.985 26.3607C194.557 27.2666 195.357 28.0054 196.308 28.4892C197.196 28.9553 198.191 29.1928 199.194 29.2016C201.517 29.2016 203.321 28.0582 204.588 25.7801L207.377 27.1171C206.603 28.5771 205.477 29.8085 204.086 30.7057C202.687 31.6028 201.007 32.0602 199.053 32.0602C197.267 32.0602 195.665 31.638 194.266 30.8024ZM227.844 28.4628C230.986 28.4628 233.476 27.5569 235.315 25.745C237.145 23.9419 238.06 21.4176 238.06 18.172C238.06 14.9264 237.145 12.4021 235.315 10.5902C233.476 8.78714 230.986 7.8812 227.844 7.8812H222.934V28.4628H227.844ZM219.775 4.87312H227.844C230.572 4.87312 232.948 5.43604 234.981 6.56187C236.96 7.64372 238.588 9.2709 239.662 11.2587C240.753 13.2641 241.299 15.5685 241.299 18.172C241.299 20.7667 240.753 23.0711 239.662 25.0765C238.588 27.0643 236.96 28.7003 234.981 29.7821C232.948 30.908 230.563 31.4709 227.844 31.4709H219.775V4.87312ZM258.528 20.2126C258.475 19.4386 258.255 18.6821 257.894 17.9873C257.524 17.2397 256.926 16.6064 256.099 16.0875C255.263 15.5685 254.207 15.3134 252.914 15.3134C251.594 15.2871 250.3 15.762 249.315 16.6504C248.294 17.5387 247.652 18.7261 247.379 20.2126H258.528ZM248.444 30.8024C247.044 29.958 245.909 28.753 245.161 27.3106C244.361 25.8241 243.965 24.1354 243.965 22.2531C243.947 20.5468 244.334 18.8668 245.082 17.3276C245.795 15.8764 246.895 14.6362 248.259 13.7654C249.64 12.8859 251.215 12.4461 253.002 12.4461C254.779 12.4461 256.345 12.8507 257.7 13.6511C259.047 14.4603 260.129 15.6389 260.807 17.055C261.519 18.515 261.88 20.2038 261.88 22.1036C261.889 22.3587 261.871 22.605 261.81 22.8512H247.168C247.212 24.2321 247.546 25.4107 248.171 26.3607C248.734 27.2666 249.535 28.0054 250.494 28.4892C251.383 28.9553 252.368 29.1928 253.371 29.2016C255.703 29.2016 257.498 28.0582 258.756 25.7801L261.546 27.1171C260.78 28.5771 259.645 29.8085 258.264 30.7057C256.864 31.6028 255.184 32.0602 253.23 32.0602C251.444 32.0602 249.851 31.638 248.444 30.8024ZM262.628 13.0442H266.042L271.691 27.7504H271.762L277.49 13.0442H280.834L273.284 31.4709H270.09L262.628 13.0442ZM296.699 20.2126C296.637 19.4386 296.426 18.6821 296.065 17.9873C295.696 17.2397 295.097 16.6064 294.27 16.0875C293.434 15.5685 292.378 15.3134 291.085 15.3134C289.765 15.2871 288.472 15.7708 287.486 16.6504C286.465 17.5387 285.823 18.7261 285.55 20.2126H296.699ZM286.615 30.8024C285.216 29.958 284.081 28.753 283.324 27.3106C282.532 25.8241 282.136 24.1354 282.136 22.2531C282.118 20.5468 282.506 18.8668 283.254 17.3276C283.966 15.8764 285.057 14.6362 286.43 13.7654C287.803 12.8859 289.387 12.4461 291.173 12.4461C292.95 12.4461 294.517 12.8507 295.872 13.6511C297.218 14.4603 298.292 15.6389 298.969 17.055C299.691 18.515 300.051 20.2038 300.051 22.1036C300.06 22.3587 300.034 22.605 299.972 22.8512H285.33C285.374 24.2321 285.709 25.4107 286.333 26.3607C286.896 27.2666 287.706 28.0054 288.656 28.4892C289.545 28.9553 290.531 29.1928 291.534 29.2016C293.866 29.2016 295.661 28.0582 296.928 25.7801L299.708 27.1171C298.943 28.5771 297.808 29.8085 296.426 30.7057C295.027 31.6028 293.346 32.0602 291.393 32.0602C289.607 32.0602 288.014 31.638 286.615 30.8024ZM303.237 4.87312H306.405V31.4621H303.237V4.87312ZM321.97 28.3484C322.947 27.7679 323.757 26.9236 324.293 25.9209C324.874 24.8654 325.165 23.6428 325.165 22.2619C325.165 20.8722 324.874 19.6584 324.293 18.603C323.757 17.5915 322.947 16.7471 321.97 16.1578C321.029 15.5949 319.947 15.3046 318.847 15.3046C317.764 15.3046 316.7 15.6037 315.767 16.1578C314.781 16.7471 313.981 17.5827 313.444 18.5942C312.863 19.6496 312.573 20.8634 312.573 22.2531C312.573 23.6428 312.863 24.8566 313.444 25.9121C313.981 26.9236 314.781 27.7679 315.767 28.3484C316.7 28.9114 317.764 29.2104 318.847 29.2016C319.947 29.2104 321.029 28.9114 321.97 28.3484ZM313.981 30.7848C312.555 29.9404 311.385 28.7179 310.619 27.249C309.81 25.7538 309.405 24.0914 309.405 22.2531C309.414 20.4237 309.81 18.7613 310.619 17.2661C311.394 15.7972 312.555 14.5746 313.981 13.7302C315.415 12.8771 317.043 12.4461 318.847 12.4461C320.659 12.4461 322.287 12.8771 323.739 13.7302C325.173 14.5746 326.344 15.7884 327.118 17.2661C327.928 18.7613 328.332 20.4237 328.332 22.2531C328.332 24.0914 327.928 25.7538 327.118 27.249C326.344 28.7179 325.173 29.9404 323.739 30.7848C322.287 31.638 320.659 32.0602 318.856 32.0602C317.043 32.0602 315.424 31.638 313.981 30.7848ZM343.318 28.3484C344.268 27.7591 345.042 26.9148 345.544 25.9209C346.107 24.8654 346.389 23.6428 346.389 22.2619C346.389 20.8722 346.107 19.6584 345.544 18.603C345.042 17.6003 344.268 16.7647 343.318 16.1666C342.411 15.6037 341.355 15.3046 340.291 15.3134C339.226 15.3046 338.179 15.5949 337.264 16.149C336.313 16.7295 335.539 17.5651 335.037 18.5678C334.474 19.6145 334.202 20.8458 334.202 22.2619C334.202 23.6516 334.474 24.8742 335.037 25.9385C335.592 27.0027 336.331 27.8119 337.264 28.366C338.179 28.9202 339.226 29.2104 340.291 29.2016C341.364 29.2104 342.411 28.9114 343.318 28.3484ZM331.183 13.0442H334.193V15.7532H334.342C334.941 14.8209 335.794 14.0293 336.912 13.396C338.029 12.7627 339.314 12.4461 340.775 12.4461C342.323 12.4373 343.854 12.8859 345.157 13.7302C346.512 14.601 347.612 15.8148 348.351 17.2397C349.143 18.7261 349.539 20.3973 349.539 22.2531C349.539 24.109 349.143 25.7801 348.351 27.2666C347.612 28.7003 346.512 29.9053 345.157 30.776C343.854 31.6204 342.332 32.069 340.775 32.0602C339.314 32.0602 338.012 31.7435 336.885 31.1103C335.759 30.4858 334.914 29.6854 334.342 28.7179H334.193L334.342 31.2774V39.4924H331.183V13.0442ZM367.005 20.2126C366.944 19.4386 366.733 18.6821 366.372 17.9873C366.002 17.2397 365.404 16.6064 364.568 16.0875C363.741 15.5685 362.685 15.3134 361.391 15.3134C360.071 15.2871 358.778 15.7708 357.792 16.6504C356.772 17.5387 356.129 18.7261 355.857 20.2126H367.005ZM356.921 30.8024C355.522 29.958 354.387 28.753 353.63 27.3106C352.838 25.8241 352.442 24.1354 352.442 22.2531C352.425 20.5468 352.812 18.8668 353.56 17.3276C354.273 15.8764 355.373 14.6362 356.737 13.7654C358.109 12.8859 359.693 12.4461 361.479 12.4461C363.257 12.4461 364.832 12.8507 366.178 13.6511C367.524 14.4603 368.607 15.6389 369.276 17.055C369.997 18.515 370.358 20.2038 370.358 22.1036C370.367 22.3587 370.34 22.605 370.287 22.8512H355.645C355.689 24.2321 356.024 25.4107 356.64 26.3607C357.212 27.2666 358.012 28.0054 358.963 28.4892C359.86 28.9553 360.846 29.1928 361.849 29.2016C364.172 29.2016 365.976 28.0582 367.234 25.7801L370.023 27.1171C369.258 28.5771 368.123 29.8085 366.741 30.7057C365.342 31.6028 363.662 32.0602 361.699 32.0602C359.913 32.0602 358.32 31.638 356.921 30.8024ZM373.552 13.0442H376.561V16.0523H376.702C377.054 15.0408 377.767 14.1788 378.84 13.4928C379.923 12.7979 380.996 12.4461 382.061 12.4461C382.791 12.4461 383.522 12.5692 384.208 12.8243V16.2018C383.548 15.8324 382.677 15.6477 381.612 15.6477C380.741 15.6477 379.896 15.9115 379.175 16.4041C378.418 16.923 377.793 17.6179 377.371 18.4359C376.931 19.289 376.702 20.2302 376.702 21.1889V31.4709H373.552V13.0442ZM400.469 30.2395C398.375 29.0521 396.641 27.3194 395.453 25.226C394.23 23.0975 393.614 20.7491 393.614 18.172C393.614 15.5949 394.23 13.2465 395.453 11.1092C396.641 9.02462 398.375 7.2831 400.469 6.0957C402.581 4.89071 404.974 4.25743 407.403 4.27503C409.286 4.26623 411.16 4.61805 412.911 5.3217C414.636 6.00775 416.053 6.98406 417.17 8.25061L414.9 10.5199C414.038 9.45561 412.92 8.63762 411.653 8.11868C410.307 7.55577 408.855 7.27431 407.394 7.2831C405.564 7.27431 403.769 7.74047 402.176 8.63762C400.557 9.54356 399.202 10.8629 398.269 12.4637C397.292 14.1172 396.809 16.0171 396.809 18.172C396.809 20.3269 397.301 22.2267 398.278 23.8715C399.211 25.4723 400.557 26.7916 402.176 27.6976C403.769 28.5947 405.573 29.0609 407.403 29.0521C409.189 29.0521 410.676 28.7794 411.882 28.2165C413.052 27.68 414.117 26.9324 415.023 26.0088C415.692 25.27 416.22 24.4168 416.581 23.4845C416.985 22.4466 417.223 21.356 417.284 20.2477H407.473V17.3188H420.259C420.373 17.9609 420.435 18.603 420.443 19.2538C420.443 20.8722 420.179 22.4818 419.66 24.021C419.15 25.5515 418.305 26.9412 417.17 28.0934C414.671 30.7408 411.415 32.069 407.403 32.069C404.965 32.0866 402.572 31.4533 400.469 30.2395ZM424.051 13.0442H427.061V16.0523H427.21C427.553 15.0408 428.266 14.1788 429.348 13.4928C430.422 12.7979 431.495 12.4461 432.56 12.4461C433.29 12.4461 434.021 12.5692 434.716 12.8243V16.2018C434.047 15.8324 433.176 15.6477 432.111 15.6477C431.24 15.6477 430.395 15.9115 429.683 16.4041C428.917 16.923 428.301 17.6179 427.879 18.4359C427.43 19.289 427.201 20.2302 427.21 21.1889V31.4709H424.051V13.0442ZM447.686 28.3484C448.663 27.7679 449.464 26.9236 450.009 25.9209C450.59 24.8654 450.88 23.6428 450.88 22.2531C450.88 20.8722 450.59 19.6496 450.009 18.5942C449.464 17.5915 448.663 16.7471 447.686 16.1666C446.736 15.6037 445.662 15.3046 444.562 15.3134C443.471 15.3046 442.406 15.6037 441.474 16.1666C440.497 16.7471 439.688 17.5915 439.151 18.5942C438.57 19.6496 438.28 20.8722 438.28 22.2531C438.28 23.6428 438.57 24.8654 439.151 25.9121C439.688 26.9236 440.488 27.7679 441.474 28.3484C442.406 28.9114 443.471 29.2016 444.554 29.2016C445.653 29.2104 446.736 28.9114 447.686 28.3484ZM439.696 30.7848C438.262 29.9404 437.1 28.7179 436.335 27.249C435.525 25.7538 435.121 24.0914 435.121 22.2531C435.121 20.4237 435.525 18.7613 436.335 17.2661C437.109 15.7972 438.271 14.5746 439.696 13.7302C441.131 12.8771 442.758 12.4461 444.571 12.4461C446.375 12.4461 448.003 12.8771 449.455 13.7302C450.889 14.5746 452.059 15.7884 452.834 17.2573C453.643 18.7613 454.039 20.4237 454.039 22.2531C454.039 24.0914 453.643 25.7538 452.834 27.249C452.059 28.7179 450.889 29.9404 449.455 30.7848C448.003 31.638 446.375 32.0602 444.571 32.0602C442.758 32.0602 441.131 31.638 439.696 30.7848ZM458.668 30.09C457.488 28.7794 456.899 26.9588 456.899 24.6367V13.0442H460.058V24.1178C460.058 27.5041 461.58 29.2016 464.633 29.2016C465.61 29.2104 466.569 28.9114 467.361 28.3484C468.171 27.7767 468.804 27.0115 469.218 26.1232C469.649 25.2172 469.869 24.2233 469.869 23.2206V13.0442H472.993V31.4709H470.019V28.7179H469.869C469.324 29.659 468.505 30.4506 467.397 31.0927C466.323 31.7347 465.1 32.069 463.85 32.0602C461.571 32.0602 459.838 31.4093 458.668 30.09ZM489.245 28.3484C490.195 27.7591 490.97 26.9148 491.471 25.9209C492.035 24.8654 492.307 23.6428 492.307 22.2619C492.307 20.8722 492.035 19.6584 491.471 18.603C490.97 17.6003 490.195 16.7647 489.245 16.1666C488.339 15.6037 487.292 15.3046 486.218 15.3134C485.154 15.3046 484.106 15.5949 483.191 16.149C482.241 16.7295 481.467 17.5651 480.965 18.5678C480.402 19.6145 480.129 20.8458 480.12 22.2619C480.12 23.6516 480.402 24.8742 480.965 25.9385C481.519 27.0027 482.258 27.8119 483.191 28.366C484.106 28.9202 485.154 29.2104 486.218 29.2016C487.292 29.2104 488.339 28.9114 489.245 28.3484ZM477.111 13.0442H480.12V15.7532H480.27C480.868 14.8209 481.722 14.0293 482.839 13.396C483.948 12.7627 485.241 12.4461 486.702 12.4461C488.26 12.4373 489.782 12.8859 491.093 13.7302C492.448 14.601 493.548 15.8148 494.287 17.2397C495.079 18.7261 495.475 20.3973 495.475 22.2531C495.475 24.1178 495.079 25.7889 494.287 27.2666C493.548 28.7003 492.448 29.9053 491.093 30.7848C489.782 31.6292 488.26 32.069 486.702 32.0602C485.241 32.0602 483.948 31.7435 482.822 31.1103C481.695 30.4858 480.851 29.6854 480.279 28.7179H480.129L480.279 31.2862V39.4924H477.12L477.111 13.0442ZM500.007 30.5825C498.643 29.5886 497.684 28.3572 497.147 26.906L499.927 25.6746C500.429 26.8356 501.124 27.7328 502.031 28.3484C502.893 28.9553 503.922 29.2808 504.987 29.2808C506.175 29.2808 507.161 29.0169 507.935 28.498C508.718 27.979 509.105 27.3458 509.114 26.6069C509.123 25.9033 508.797 25.2436 508.234 24.8214C507.653 24.3553 506.659 23.9419 505.242 23.5989L502.717 22.9568C501.415 22.6753 500.191 22.0772 499.171 21.2153C498.194 20.3709 497.701 19.2539 497.701 17.8642C497.701 16.7295 498.027 15.7532 498.687 14.9352C499.382 14.0997 500.279 13.4576 501.309 13.0794C502.444 12.6484 503.658 12.4373 504.873 12.4461C506.386 12.4285 507.882 12.8067 509.202 13.5455C510.46 14.2228 511.437 15.3222 511.974 16.6504L509.184 17.8378C508.832 16.9934 508.19 16.2985 507.38 15.8676C506.545 15.4366 505.621 15.2255 504.688 15.2343C503.764 15.2255 502.858 15.463 502.066 15.9379C501.283 16.4129 500.895 17.011 500.895 17.7586C500.869 18.3655 501.159 18.9372 501.652 19.2802C502.163 19.6584 502.972 19.9927 504.09 20.2829L506.835 20.9514C508.665 21.4263 510.038 22.1212 510.944 23.0535C511.824 23.9331 512.317 25.1293 512.299 26.3782C512.308 27.4161 511.983 28.4364 511.367 29.272C510.751 30.1427 509.879 30.82 508.771 31.3213C507.653 31.8139 506.386 32.0602 504.978 32.0602C503.025 32.0602 501.371 31.5676 500.007 30.5825ZM29.9218 25.3052L9.3666 13.44C6.55082 11.848 2.97831 12.8507 1.39443 15.6653C-0.171839 18.4359 0.769685 21.9541 3.51507 23.5725L24.0614 35.4377C26.9124 36.9681 30.4585 35.9126 31.9984 33.0629C33.4767 30.3362 32.5616 26.9324 29.9218 25.3052ZM70.9089 13.44L50.3537 1.57479C47.5204 0.0179793 43.9654 1.06465 42.408 3.89682C40.9033 6.64103 41.8272 10.0801 44.5022 11.6985L65.0574 23.5725C67.8555 25.182 71.4369 24.2233 73.0471 21.4263C74.6662 18.6294 73.7071 15.0496 70.9089 13.44ZM64.239 24.9798L54.6478 19.4386L44.5022 25.3052C41.704 26.9148 40.7449 30.4946 42.3552 33.2915C43.9742 36.0973 47.5556 37.056 50.3537 35.4377L66.8788 25.9033C65.9461 25.7626 65.0574 25.4459 64.239 24.9798ZM10.1761 12.0239L19.7674 17.5651L29.9218 11.7073C32.6759 10.0097 33.5295 6.40355 31.8312 3.65054C30.2033 1.01188 26.798 0.0971388 24.0614 1.57479L7.54515 11.1092C8.46907 11.2499 9.3666 11.5577 10.1761 12.0239Z" fill="white"/>
</svg>
