<svg width="99" height="91" viewBox="0 0 99 91" fill="none" xmlns="http://www.w3.org/2000/svg">
<rect width="99" height="91" fill="white"/>
<path d="M99 0V4.84914H94.1894V14.4607H89.4964V16.8455H84.75V24H80V16.8455V15.4761V14.4607V4.84914V0H99Z" fill="black"/>
<mask id="mask0_2155_29269" style="mask-type:luminance" maskUnits="userSpaceOnUse" x="80" y="0" width="19" height="24">
<path d="M99 0V4.84914H94.193V14.4607H89.5V16.8455H84.75V24H80V16.8455V15.4761V14.4607V4.84914V0H99Z" fill="white"/>
</mask>
<g mask="url(#mask0_2155_29269)">
<path d="M89.418 29.0985H79.8539V19.4002H89.418V29.0985Z" stroke="white" stroke-miterlimit="10"/>
<path d="M84.6396 29.0984C81.9985 29.0984 79.8575 26.9274 79.8575 24.2493C79.8575 21.5712 81.9985 19.4001 84.6396 19.4001C87.2806 19.4001 89.4216 21.5712 89.4216 24.2493C89.4216 26.9274 87.2806 29.0984 84.6396 29.0984Z" stroke="white" stroke-miterlimit="10"/>
<path d="M79.8575 24.2493H89.4216" stroke="white" stroke-miterlimit="10"/>
<path d="M84.6395 19.4001V29.0984" stroke="white" stroke-miterlimit="10"/>
<path d="M98.9858 29.0985H89.4216V19.4002H98.9858V29.0985Z" stroke="white" stroke-miterlimit="10"/>
<path d="M94.2036 29.0984C91.5626 29.0984 89.4216 26.9274 89.4216 24.2493C89.4216 21.5712 91.5626 19.4001 94.2036 19.4001C96.8447 19.4001 98.9857 21.5712 98.9857 24.2493C98.9857 26.9274 96.8447 29.0984 94.2036 29.0984Z" stroke="white" stroke-miterlimit="10"/>
<path d="M89.4216 24.2493H98.9893" stroke="white" stroke-miterlimit="10"/>
<path d="M94.2036 19.4001V29.0984" stroke="white" stroke-miterlimit="10"/>
<path d="M108.55 29.0985H98.9857V19.4002H108.55V29.0985Z" stroke="white" stroke-miterlimit="10"/>
<path d="M103.771 29.0984C101.13 29.0984 98.9893 26.9274 98.9893 24.2493C98.9893 21.5712 101.13 19.4001 103.771 19.4001C106.412 19.4001 108.553 21.5712 108.553 24.2493C108.553 26.9274 106.412 29.0984 103.771 29.0984Z" stroke="white" stroke-miterlimit="10"/>
<path d="M98.9893 24.2493H108.553" stroke="white" stroke-miterlimit="10"/>
<path d="M89.418 19.4001H79.8539V9.70186L89.418 9.70186V19.4001Z" stroke="white" stroke-miterlimit="10"/>
<path d="M84.6396 19.4002C81.9985 19.4002 79.8575 17.2292 79.8575 14.551C79.8575 11.8729 81.9985 9.7019 84.6396 9.7019C87.2806 9.7019 89.4216 11.8729 89.4216 14.551C89.4216 17.2292 87.2806 19.4002 84.6396 19.4002Z" stroke="white" stroke-miterlimit="10"/>
<path d="M79.8575 14.551H89.4216" stroke="white" stroke-miterlimit="10"/>
<path d="M84.6395 9.69824V19.4001" stroke="white" stroke-miterlimit="10"/>
<path d="M98.9858 19.4001H89.4216V9.70186L98.9858 9.70186V19.4001Z" stroke="white" stroke-miterlimit="10"/>
<path d="M94.2036 19.4002C91.5626 19.4002 89.4216 17.2292 89.4216 14.551C89.4216 11.8729 91.5626 9.7019 94.2036 9.7019C96.8447 9.7019 98.9857 11.8729 98.9857 14.551C98.9857 17.2292 96.8447 19.4002 94.2036 19.4002Z" stroke="white" stroke-miterlimit="10"/>
<path d="M89.4216 14.551H98.9893" stroke="white" stroke-miterlimit="10"/>
<path d="M94.2036 9.69824V19.4001" stroke="white" stroke-miterlimit="10"/>
<path d="M108.55 19.4001H98.9857V9.70186L108.55 9.70186V19.4001Z" stroke="white" stroke-miterlimit="10"/>
<path d="M103.771 19.4002C101.13 19.4002 98.9893 17.2292 98.9893 14.551C98.9893 11.8729 101.13 9.7019 103.771 9.7019C106.412 9.7019 108.553 11.8729 108.553 14.551C108.553 17.2292 106.412 19.4002 103.771 19.4002Z" stroke="white" stroke-miterlimit="10"/>
<path d="M98.9893 14.551H108.553" stroke="white" stroke-miterlimit="10"/>
<path d="M79.8539 29.0985H70.2898V19.4002H79.8539V29.0985Z" stroke="white" stroke-miterlimit="10"/>
<path d="M75.0754 29.0984C72.4343 29.0984 70.2933 26.9274 70.2933 24.2493C70.2933 21.5712 72.4343 19.4001 75.0754 19.4001C77.7164 19.4001 79.8574 21.5712 79.8574 24.2493C79.8574 26.9274 77.7164 29.0984 75.0754 29.0984Z" stroke="white" stroke-miterlimit="10"/>
<path d="M79.8539 19.4001H70.2898V9.70186L79.8539 9.70186V19.4001Z" stroke="white" stroke-miterlimit="10"/>
<path d="M75.0754 19.4002C72.4343 19.4002 70.2933 17.2292 70.2933 14.551C70.2933 11.8729 72.4343 9.7019 75.0754 9.7019C77.7164 9.7019 79.8574 11.8729 79.8574 14.551C79.8574 17.2292 77.7164 19.4002 75.0754 19.4002Z" stroke="white" stroke-miterlimit="10"/>
<path d="M89.418 9.69824L79.8539 9.69824V-4.19617e-05L89.418 -4.19617e-05V9.69824Z" stroke="white" stroke-miterlimit="10"/>
<path d="M84.6396 9.69828C81.9985 9.69828 79.8575 7.52725 79.8575 4.84914C79.8575 2.17104 81.9985 0 84.6396 0C87.2806 0 89.4216 2.17104 89.4216 4.84914C89.4216 7.52725 87.2806 9.69828 84.6396 9.69828Z" stroke="white" stroke-miterlimit="10"/>
<path d="M79.8575 4.84912H89.4216" stroke="white" stroke-miterlimit="10"/>
<path d="M84.6395 0V9.69828" stroke="white" stroke-miterlimit="10"/>
<path d="M98.9858 9.69824L89.4216 9.69824V-4.19617e-05L98.9858 -4.19617e-05V9.69824Z" stroke="white" stroke-miterlimit="10"/>
<path d="M94.2036 9.69828C91.5626 9.69828 89.4216 7.52725 89.4216 4.84914C89.4216 2.17104 91.5626 0 94.2036 0C96.8447 0 98.9857 2.17104 98.9857 4.84914C98.9857 7.52725 96.8447 9.69828 94.2036 9.69828Z" stroke="white" stroke-miterlimit="10"/>
<path d="M89.4216 4.84912H98.9893" stroke="white" stroke-miterlimit="10"/>
<path d="M94.2036 0V9.69828" stroke="white" stroke-miterlimit="10"/>
<path d="M108.55 9.69824L98.9857 9.69824V-4.19617e-05L108.55 -4.19617e-05V9.69824Z" stroke="white" stroke-miterlimit="10"/>
<path d="M103.771 9.69828C101.13 9.69828 98.9893 7.52725 98.9893 4.84914C98.9893 2.17104 101.13 0 103.771 0C106.412 0 108.553 2.17104 108.553 4.84914C108.553 7.52725 106.412 9.69828 103.771 9.69828Z" stroke="white" stroke-miterlimit="10"/>
<path d="M98.9893 4.84912H108.553" stroke="white" stroke-miterlimit="10"/>
<path d="M79.8539 9.69824L70.2898 9.69824V-4.19617e-05L79.8539 -4.19617e-05V9.69824Z" stroke="white" stroke-miterlimit="10"/>
<path d="M75.0754 9.69828C72.4343 9.69828 70.2933 7.52725 70.2933 4.84914C70.2933 2.17104 72.4343 0 75.0754 0C77.7164 0 79.8574 2.17104 79.8574 4.84914C79.8574 7.52725 77.7164 9.69828 75.0754 9.69828Z" stroke="white" stroke-miterlimit="10"/>
</g>
<path d="M94.4353 14.2909H99V18.9196H94.4353V14.2909Z" fill="#007A3D"/>
<path d="M0 40V50.3044H4.81058V70.729H9.50356V75.7967H14.25V91H19V75.7967V72.8866V70.729V50.3044V40H0Z" fill="#CE1126"/>
<mask id="mask1_2155_29269" style="mask-type:luminance" maskUnits="userSpaceOnUse" x="0" y="40" width="19" height="51">
<path d="M0 40V50.3044H4.80701V70.729H9.5V75.7967H14.25V91H19V75.7967V72.8866V70.729V50.3044V40H0Z" fill="white"/>
</mask>
<g mask="url(#mask1_2155_29269)">
<path d="M9.58198 101.834H19.1461V81.2254H9.58198L9.58198 101.834Z" stroke="white" stroke-miterlimit="10"/>
<path d="M14.3604 101.834C17.0015 101.834 19.1425 97.2207 19.1425 91.5298C19.1425 85.8388 17.0015 81.2253 14.3604 81.2253C11.7194 81.2253 9.57837 85.8388 9.57837 91.5298C9.57837 97.2207 11.7194 101.834 14.3604 101.834Z" stroke="white" stroke-miterlimit="10"/>
<path d="M14.3605 81.2253V101.834" stroke="white" stroke-miterlimit="10"/>
<path d="M0.0142288 101.834H9.57837L9.57837 81.2254H0.0142288L0.0142288 101.834Z" stroke="white" stroke-miterlimit="10"/>
<path d="M4.79635 101.834C7.43742 101.834 9.57843 97.2207 9.57843 91.5298C9.57843 85.8388 7.43742 81.2253 4.79635 81.2253C2.15529 81.2253 0.0142822 85.8388 0.0142822 91.5298C0.0142822 97.2207 2.15529 101.834 4.79635 101.834Z" stroke="white" stroke-miterlimit="10"/>
<path d="M4.79639 81.2253V101.834" stroke="white" stroke-miterlimit="10"/>
<path d="M-9.54986 101.834H0.0142822L0.0142822 81.2254H-9.54986L-9.54986 101.834Z" stroke="white" stroke-miterlimit="10"/>
<path d="M-4.7714 101.834C-2.13033 101.834 0.0106773 97.2207 0.0106773 91.5298C0.0106773 85.8388 -2.13033 81.2253 -4.7714 81.2253C-7.41246 81.2253 -9.55347 85.8388 -9.55347 91.5298C-9.55347 97.2207 -7.41246 101.834 -4.7714 101.834Z" stroke="white" stroke-miterlimit="10"/>
<path d="M9.58198 81.2253H19.1461V60.6165H9.58198L9.58198 81.2253Z" stroke="white" stroke-miterlimit="10"/>
<path d="M14.3604 81.2254C17.0015 81.2254 19.1425 76.612 19.1425 70.921C19.1425 65.23 17.0015 60.6166 14.3604 60.6166C11.7194 60.6166 9.57837 65.23 9.57837 70.921C9.57837 76.612 11.7194 81.2254 14.3604 81.2254Z" stroke="white" stroke-miterlimit="10"/>
<path d="M19.1425 70.9209H9.57837" stroke="white" stroke-miterlimit="10"/>
<path d="M14.3605 60.6089V81.2254" stroke="white" stroke-miterlimit="10"/>
<path d="M0.0142288 81.2253H9.57837L9.57837 60.6165H0.0142288L0.0142288 81.2253Z" stroke="white" stroke-miterlimit="10"/>
<path d="M4.79635 81.2254C7.43742 81.2254 9.57843 76.612 9.57843 70.921C9.57843 65.23 7.43742 60.6166 4.79635 60.6166C2.15529 60.6166 0.0142822 65.23 0.0142822 70.921C0.0142822 76.612 2.15529 81.2254 4.79635 81.2254Z" stroke="white" stroke-miterlimit="10"/>
<path d="M9.57845 70.9209H0.0107422" stroke="white" stroke-miterlimit="10"/>
<path d="M4.79639 60.6089V81.2254" stroke="white" stroke-miterlimit="10"/>
<path d="M-9.54986 81.2253H0.0142822L0.0142822 60.6165H-9.54986L-9.54986 81.2253Z" stroke="white" stroke-miterlimit="10"/>
<path d="M-4.7714 81.2254C-2.13033 81.2254 0.0106773 76.612 0.0106773 70.921C0.0106773 65.23 -2.13033 60.6166 -4.7714 60.6166C-7.41246 60.6166 -9.55347 65.23 -9.55347 70.921C-9.55347 76.612 -7.41246 81.2254 -4.7714 81.2254Z" stroke="white" stroke-miterlimit="10"/>
<path d="M0.0106771 70.9209H-9.55347" stroke="white" stroke-miterlimit="10"/>
<path d="M19.1461 101.834H28.7102V81.2254H19.1461V101.834Z" stroke="white" stroke-miterlimit="10"/>
<path d="M23.9246 101.834C26.5657 101.834 28.7067 97.2207 28.7067 91.5298C28.7067 85.8388 26.5657 81.2253 23.9246 81.2253C21.2836 81.2253 19.1426 85.8388 19.1426 91.5298C19.1426 97.2207 21.2836 101.834 23.9246 101.834Z" stroke="white" stroke-miterlimit="10"/>
<path d="M19.1461 81.2253H28.7102V60.6165H19.1461V81.2253Z" stroke="white" stroke-miterlimit="10"/>
<path d="M23.9246 81.2254C26.5657 81.2254 28.7067 76.612 28.7067 70.921C28.7067 65.23 26.5657 60.6166 23.9246 60.6166C21.2836 60.6166 19.1426 65.23 19.1426 70.921C19.1426 76.612 21.2836 81.2254 23.9246 81.2254Z" stroke="white" stroke-miterlimit="10"/>
<path d="M9.58198 60.6089H19.1461V40H9.58198L9.58198 60.6089Z" stroke="white" stroke-miterlimit="10"/>
<path d="M14.3604 60.6089C17.0015 60.6089 19.1425 55.9954 19.1425 50.3044C19.1425 44.6134 17.0015 40 14.3604 40C11.7194 40 9.57837 44.6134 9.57837 50.3044C9.57837 55.9954 11.7194 60.6089 14.3604 60.6089Z" stroke="white" stroke-miterlimit="10"/>
<path d="M19.1425 50.3044H9.57837" stroke="white" stroke-miterlimit="10"/>
<path d="M14.3605 40V60.6089" stroke="white" stroke-miterlimit="10"/>
<path d="M0.0142288 60.6089H9.57837L9.57837 40H0.0142288L0.0142288 60.6089Z" stroke="white" stroke-miterlimit="10"/>
<path d="M4.79635 60.6089C7.43742 60.6089 9.57843 55.9954 9.57843 50.3044C9.57843 44.6134 7.43742 40 4.79635 40C2.15529 40 0.0142822 44.6134 0.0142822 50.3044C0.0142822 55.9954 2.15529 60.6089 4.79635 60.6089Z" stroke="white" stroke-miterlimit="10"/>
<path d="M9.57845 50.3044H0.0107422" stroke="white" stroke-miterlimit="10"/>
<path d="M4.79639 40V60.6089" stroke="white" stroke-miterlimit="10"/>
<path d="M-9.54986 60.6089H0.0142822L0.0142822 40H-9.54986L-9.54986 60.6089Z" stroke="white" stroke-miterlimit="10"/>
<path d="M-4.7714 60.6089C-2.13033 60.6089 0.0106773 55.9954 0.0106773 50.3044C0.0106773 44.6134 -2.13033 40 -4.7714 40C-7.41246 40 -9.55347 44.6134 -9.55347 50.3044C-9.55347 55.9954 -7.41246 60.6089 -4.7714 60.6089Z" stroke="white" stroke-miterlimit="10"/>
<path d="M0.0106771 50.3044H-9.55347" stroke="white" stroke-miterlimit="10"/>
<path d="M19.1461 60.6089H28.7102V40H19.1461V60.6089Z" stroke="white" stroke-miterlimit="10"/>
<path d="M23.9246 60.6089C26.5657 60.6089 28.7067 55.9954 28.7067 50.3044C28.7067 44.6134 26.5657 40 23.9246 40C21.2836 40 19.1426 44.6134 19.1426 50.3044C19.1426 55.9954 21.2836 60.6089 23.9246 60.6089Z" stroke="white" stroke-miterlimit="10"/>
</g>
<path d="M4.5647 70.3682H0V80.2042H4.5647V70.3682Z" fill="#007A3D"/>
</svg>
